<svg xmlns="http://www.w3.org/2000/svg" xmlns:xlink="http://www.w3.org/1999/xlink" width="1299" zoomAndPan="magnify" viewBox="0 0 974.25 576" height="768" preserveAspectRatio="xMidYMid meet" version="1.0"><defs><clipPath id="ad484917db"><path d="M 0 295 L 525 295 L 525 575.777344 L 0 575.777344 Z M 0 295 " clip-rule="nonzero"/></clipPath><clipPath id="c0d3b1873e"><path d="M 446 7 L 973.5 7 L 973.5 245 L 446 245 Z M 446 7 " clip-rule="nonzero"/></clipPath></defs><g clip-path="url(#ad484917db)"><path fill="#ffdbac" d="M 374.71875 295.792969 L 374.71875 295.796875 L 374.285156 295.796875 C 372.601562 295.878906 371.207031 296.824219 370.410156 298.820312 C 366.089844 309.632812 348.597656 331.101562 329.660156 341.484375 C 310.71875 351.871094 282.578125 414.257812 282.578125 414.257812 C 200.242188 450.871094 85.730469 451.203125 0 444.230469 L 0 575.71875 C 100.90625 563.507812 210.167969 547.601562 291.84375 505.867188 C 350.585938 515.058594 421.492188 535.726562 461.160156 486.589844 C 469.496094 474.039062 464.515625 474.238281 456.824219 478.480469 C 446.660156 484.082031 422.074219 494.675781 411.71875 490.894531 C 454.058594 477.367188 503.050781 434.742188 512.394531 419.507812 C 521.792969 403.703125 514.859375 393.273438 495.382812 412.117188 C 472.230469 430.066406 439.855469 447.980469 416.859375 455.152344 C 449.613281 436.4375 501.398438 408.746094 522.746094 368.425781 C 528.789062 357.015625 514.828125 349.773438 509.769531 355.359375 C 485.953125 381.644531 437.988281 410.753906 403.175781 419.246094 C 451.359375 391.316406 478.097656 368.984375 496.589844 351.351562 C 514.382812 334.386719 492.695312 330.242188 487.359375 334.027344 C 410.679688 388.417969 375.464844 376.207031 370.605469 372.929688 C 368.804688 371.714844 353.90625 366.101562 379.445312 341.210938 C 400.660156 320.539062 383.925781 296.144531 374.71875 295.796875 Z M 374.71875 295.792969 " fill-opacity="1" fill-rule="nonzero"/></g><g clip-path="url(#c0d3b1873e)"><path fill="#deaa87" d="M 973.496094 7.628906 C 878.636719 9.164062 779.398438 14.660156 694.199219 45.761719 C 637.019531 29.46875 569.167969 0.292969 523.796875 44.222656 C 513.988281 55.660156 518.957031 56.070312 527.109375 52.800781 C 537.882812 48.480469 563.578125 40.96875 573.390625 45.984375 C 529.71875 54.242188 475.886719 90.570312 464.757812 104.546875 C 453.5 119.085938 459.101562 130.285156 480.738281 113.960938 C 505.910156 98.972656 540.230469 85.144531 563.925781 80.832031 C 529.132812 95.410156 474.355469 116.574219 448.242188 153.984375 C 440.855469 164.570312 453.828125 173.460938 459.53125 168.539062 C 486.375 145.355469 537.535156 122.320312 573.125 118.140625 C 521.890625 139.980469 492.628906 158.882812 472.121094 174.121094 C 452.386719 188.789062 473.40625 195.550781 479.164062 192.445312 C 561.914062 147.824219 595.375 164.238281 599.792969 168.085938 C 601.4375 169.511719 615.535156 176.902344 587.144531 198.488281 C 558.757812 220.074219 584.316406 253.730469 590.945312 241.667969 C 596.550781 231.460938 616.535156 212.289062 636.597656 204.292969 C 656.664062 196.296875 692.210938 137.816406 692.210938 137.816406 C 777.433594 111.820312 889.558594 124.875 973.496094 141.980469 Z M 973.496094 7.628906 " fill-opacity="1" fill-rule="nonzero"/></g><path fill="#ff5555" d="M 425.019531 200.371094 C 385.050781 195.117188 359.441406 253.832031 393.246094 289.980469 C 409.339844 307.1875 424.757812 324.527344 443.910156 339.617188 C 466.214844 329.765625 485.460938 316.800781 505.328125 304.132812 C 547.554688 277.210938 536.605469 212.785156 495.398438 209.292969 C 477.824219 207.804688 469.570312 210.738281 459.261719 218.09375 C 451.105469 208.40625 443.839844 203.515625 426.449219 200.585938 C 425.96875 200.503906 425.492188 200.433594 425.019531 200.371094 Z M 425.019531 200.371094 " fill-opacity="1" fill-rule="nonzero"/></svg>